<svg xmlns="http://www.w3.org/2000/svg" viewBox="0 0 50 50">
  <path fill="currentColor" d="m45.69,5.83c-.31-.4-.61-.82-.92-1.22l-4.31-4.61H9.54L.09,10.11v8.43h49.83v-7.71c-1.51-1.56-2.89-3.28-4.22-5.01Z"/>
  <path fill="currentColor" d="m49.64,21.73h-14.39s-.06,17.49-.06,18.31c0,.82-.82,1.87-2.97,1.87s-2.91-1.87-4.72-3.92-2.5-1.12-2.5-1.12c0,0-.7-.93-2.5,1.12s-2.56,3.92-4.72,3.92-2.97-1.05-2.97-1.87c0-.82-.06-18.31-.06-18.31H.36v25.72s-.47,2.55,2.39,2.55h44.5c2.85,0,2.39-2.55,2.39-2.55v-25.72Z"/>
</svg>
