<svg width="24" height="24" viewBox="0 0 24 24" fill="none" xmlns="http://www.w3.org/2000/svg">
<path d="M11.2061 3.45374C11.6979 3.17265 12.3021 3.17265 12.7939 3.45374L15.0039 4.71643C15.3113 4.8921 15.6887 4.8921 15.9961 4.71643L18.252 3.42737C18.5853 3.23696 19 3.47805 19 3.86194V20.1383C19 20.5222 18.5853 20.7632 18.252 20.5729L15.9961 19.2838C15.6887 19.1081 15.3113 19.1081 15.0039 19.2838L12.7939 20.5465C12.3021 20.8276 11.6979 20.8276 11.2061 20.5465L8.99609 19.2838C8.68866 19.1081 8.31134 19.1081 8.00391 19.2838L5.74805 20.5729C5.41475 20.7632 5 20.5222 5 20.1383V3.86194C5 3.47805 5.41473 3.23696 5.74805 3.42737L8.00391 4.71643C8.31133 4.8921 8.68867 4.8921 8.99609 4.71643L11.2061 3.45374ZM9.5 13.9996C9.22398 13.9996 9.0002 14.2237 9 14.4996C9 14.7758 9.22386 14.9996 9.5 14.9996H14.5C14.7761 14.9996 15 14.7758 15 14.4996C14.9998 14.2237 14.776 13.9996 14.5 13.9996H9.5ZM9.5 11.4996C9.22398 11.4996 9.0002 11.7237 9 11.9996C9 12.2758 9.22386 12.4996 9.5 12.4996H14.5C14.7761 12.4996 15 12.2758 15 11.9996C14.9998 11.7237 14.776 11.4996 14.5 11.4996H9.5ZM9.5 8.99963C9.22398 8.99963 9.0002 9.22366 9 9.49963C9 9.77578 9.22386 9.99963 9.5 9.99963H14.5C14.7761 9.99963 15 9.77578 15 9.49963C14.9998 9.22366 14.776 8.99963 14.5 8.99963H9.5Z" fill="white"/>
</svg>
