<svg width="24" height="24" viewBox="0 0 24 24" fill="none" xmlns="http://www.w3.org/2000/svg">
<path d="M14 2C17.7712 2 19.6566 2.0003 20.8281 3.17188C21.9997 4.34345 22 6.22876 22 10V14C22 17.7712 21.9997 19.6566 20.8281 20.8281C19.6566 21.9997 17.7712 22 14 22H10C6.22876 22 4.34345 21.9997 3.17188 20.8281C2.0003 19.6566 2 17.7712 2 14V10C2 6.22876 2.0003 4.34345 3.17188 3.17188C4.34345 2.0003 6.22876 2 10 2H14ZM12 15C10.4591 15 8.96079 15.5082 7.73828 16.4463C6.51584 17.3843 5.63709 18.7001 5.23828 20.1885C5.09553 20.7218 5.4121 21.2701 5.94531 21.4131C6.47869 21.556 7.02687 21.2394 7.16992 20.7061C7.45479 19.6429 8.08287 18.7032 8.95605 18.0332C9.82928 17.3632 10.8993 17 12 17C13.1007 17 14.1707 17.3632 15.0439 18.0332C15.9171 18.7032 16.5452 19.6429 16.8301 20.7061C16.9731 21.2394 17.5213 21.556 18.0547 21.4131C18.5879 21.2701 18.9045 20.7218 18.7617 20.1885C18.3629 18.7001 17.4842 17.3843 16.2617 16.4463C15.0392 15.5082 13.5409 15 12 15ZM12 5C9.79086 5 8 6.79086 8 9C8 11.2091 9.79086 13 12 13C14.2091 13 16 11.2091 16 9C16 6.79086 14.2091 5 12 5ZM12 7C13.1046 7 14 7.89543 14 9C14 10.1046 13.1046 11 12 11C10.8954 11 10 10.1046 10 9C10 7.89543 10.8954 7 12 7Z" fill="white"/>
<rect x="2.5" y="2.5" width="19" height="19" rx="3.5" stroke="white"/>
</svg>
