<?xml version="1.0" encoding="UTF-8"?>
<svg id="Layer_2" data-name="Layer 2" xmlns="http://www.w3.org/2000/svg" viewBox="0 0 50 50">
  <defs>
    <style>
      .cls-1 {
        fill: #fff;
      }
    </style>
  </defs>
  <path class="cls-1" d="m42.41.15c-5.56.82-19.98,3.35-19.98,3.35,0,0-7.05.16-7.05,7.49,0,2.52,0,3.31,0,3.26v19.42c-10.34-.34-9.76.77-12.36,2.41-2.61,1.64-2.41,5.41-2.03,9.56s7.73,4.35,7.73,4.35c9.49,0,9.97-6.51,9.97-6.51v-21.75l27.24-5.3v11.31c-10.34-.34-9.76.77-12.36,2.41-2.61,1.64-2.41,5.41-2.03,9.56.39,4.15,7.73,4.35,7.73,4.35,9.49,0,9.97-6.51,9.97-6.51V2.12s-1.26-2.8-6.82-1.97Zm3.52,5.91v7.42l-27.24,5.41v-7.88s-.58-3.49,4.45-4.55,19.25-3.35,19.25-3.35c0,0,3.55-.27,3.55,1.97v.99Z"/>
</svg>