<?xml version="1.0" encoding="UTF-8"?>
<svg id="Layer_2" data-name="Layer 2" xmlns="http://www.w3.org/2000/svg" viewBox="0 0 50 50">
  <defs>
    <style>
      .cls-1 {
        fill: #fff;
      }
    </style>
  </defs>
  <path class="cls-1" d="m46.03,43.68v-22.59c0-2.84-3.49-6.08-3.49-6.08,0,0-10.09-10.77-13.36-13.36-.23-.18-.45-.34-.66-.48-.07-.05-.14-.09-.2-.13-.14-.09-.28-.18-.41-.25-.07-.04-.15-.08-.22-.12-.12-.07-.24-.13-.36-.18-.07-.03-.13-.06-.2-.09-.12-.05-.24-.1-.36-.14-.05-.02-.1-.04-.14-.05-.33-.1-.63-.16-.89-.19-.01,0-.03,0-.04,0-.12-.01-.23-.01-.34-.01-.01,0-.03,0-.04,0-.11,0-.21.01-.31.02h0c-.16-.02-.35-.03-.56-.02-.95-.06-1.44.28-1.44.28v.05c-.63.25-1.35.65-2.18,1.3-3.27,2.59-13.36,13.36-13.36,13.36,0,0-3.49,3.24-3.49,6.08v22.59s-.42,6.32,6.32,6.32,8.03-.06,8.03-.06v-16.08s-.27-3.13,3.13-3.13h5.94c3.4,0,3.13,3.13,3.13,3.13v16.08s1.29.06,8.03.06c0,0,0,0,.01,0,.37,0,.76,0,1.16,0,6.74,0,6.32-6.32,6.32-6.32Z"/>
  <path class="cls-1" d="m27.57,32.38h-6.08c-1.65,0-1.37,1.37-1.37,1.37v15.28h8.83v-15.28s.27-1.37-1.37-1.37Z"/>
</svg>