<?xml version="1.0" encoding="UTF-8"?>
<svg id="Layer_2" data-name="Layer 2" xmlns="http://www.w3.org/2000/svg" viewBox="0 0 50 50">
  <defs>
    <style>
      .cls-1 {
        fill: #fff;
      }
    </style>
  </defs>
  <path class="cls-1" d="m45.21,38.83c-.19-2.26-2.04-2.91-3.99-2.93-1.96-.02-3.13.48-3.13,1.4s2.07.74,2.07.74c4.26-.02,1.79,3.71,1.79,3.71-3.39,5.67-16.47,5.78-16.47,5.78,0,0-13.08-.1-16.47-5.78,0,0-2.47-3.73,1.79-3.71,0,0,2.07.18,2.07-.74s-1.17-1.43-3.13-1.4c-1.96.02-3.81.67-3.99,2.93s.64,10.84,19.73,11.16c19.09-.33,19.92-8.9,19.73-11.16Z"/>
  <path class="cls-1" d="m25.47,42.37s13.36-5.92,18.23-16.66-3.34-19.58-6.61-21.88C33.82,1.54,31.94-.06,25.47,0c-6.47-.07-8.35,1.53-11.62,3.83S2.38,14.96,7.25,25.71c4.87,10.75,18.23,16.66,18.23,16.66Zm.26-34.87c6.09,0,11.03,4.94,11.03,11.03s-4.94,11.03-11.03,11.03-11.03-4.94-11.03-11.03,4.94-11.03,11.03-11.03Z"/>
</svg>