<svg width="24" height="24" viewBox="0 0 24 24" fill="none" xmlns="http://www.w3.org/2000/svg">
<path fill-rule="evenodd" clip-rule="evenodd" d="M10.2178 3.07917C10.0796 3.02894 9.92642 3.04203 9.79882 3.11494L3.25193 6.85602C3.09614 6.94504 3 7.11071 3 7.29014V7.58579C3 7.79604 3.13154 7.98384 3.32914 8.05569L13.6875 11.8222C13.8256 11.8724 13.9788 11.8593 14.1064 11.7864L20.748 7.99174C20.9038 7.90273 21 7.73705 21 7.55761V7.3502C21 7.13994 20.8685 6.95215 20.6709 6.8803L10.2178 3.07917ZM21 11.0132C21 10.6293 20.5853 10.3886 20.2519 10.5791L14.4961 13.8681C14.2409 14.014 13.9344 14.0399 13.6582 13.9394L3.67087 10.3077C3.34478 10.1891 3 10.4306 3 10.7776V12.5858C3 12.7961 3.13154 12.9839 3.32914 13.0557L13.6875 16.8222C13.8256 16.8724 13.9788 16.8593 14.1064 16.7864L20.748 12.9918C20.9038 12.9027 21 12.7371 21 12.5576V11.0132ZM3.32913 18.1197C3.13153 18.0478 3 17.86 3 17.6498V15.7776C3 15.4306 3.34478 15.1891 3.67087 15.3077L13.6582 18.9394C13.9344 19.0399 14.2409 19.014 14.4961 18.8682L20.2519 15.5791C20.5853 15.3886 21 15.6293 21 16.0132V17.7098C21 17.8892 20.9039 18.0549 20.7481 18.1439L14.2012 21.885C14.0736 21.9579 13.9204 21.971 13.7822 21.9208L3.32913 18.1197Z" fill="#222222"/>
</svg>
