<?xml version="1.0" encoding="UTF-8"?>
<svg id="Layer_3" data-name="Layer 3" xmlns="http://www.w3.org/2000/svg" viewBox="0 0 50 50">
  <defs>
    <style>
      .cls-1 {
        fill: #fff;
      }
    </style>
  </defs>
  <path class="cls-1" d="m43.59.57H6.41C3.18.57.57,3.18.57,6.41v37.18c0,3.23,2.61,5.84,5.84,5.84h37.18c3.23,0,5.84-2.61,5.84-5.84V6.41c0-3.23-2.61-5.84-5.84-5.84Zm-3.09,18.92c0,1.86-1.08,3.1-3.1,3.1s-2.26-1.33-2.26-1.33v-2.79l-6.84,6.84v13.49s.32,3.46-3.44,3.5h0s-.02,0-.03,0-.02,0-.03,0h0c-3.76-.05-3.44-3.5-3.44-3.5v-13.49l-6.84-6.84v2.79s-.24,1.33-2.26,1.33-3.1-1.24-3.1-3.1v-9.9h9.9c1.86,0,3.1,1.08,3.1,3.1s-1.33,2.26-1.33,2.26h-2.79l6.79,6.79,6.79-6.79h-2.79s-1.33-.24-1.33-2.26,1.24-3.1,3.1-3.1h9.9v9.9Z"/>
</svg>