<svg width="486" height="690" viewBox="0 0 486 690" fill="none" xmlns="http://www.w3.org/2000/svg">
<!-- <path d="M242.918 20.4126C375.884 20.4126 490.95 117.373 485.836 270.468C481.747 392.86 322.406 599.337 243.082 687.469V687.653C243.055 687.622 243.028 687.592 243 687.561C242.973 687.591 242.945 687.622 242.918 687.653V687.469C163.594 599.336 4.25273 392.86 0.164185 270.468C-4.94777 117.436 110.022 20.4925 242.918 20.4126Z" fill="#5abbc0d9"/> -->
<path d="M241.64 0C246.754 0.00157773 247.18 39.1247 246.753 58.6865C249.737 58.2613 255.704 58.6869 255.704 63.79C255.703 68.8931 253.146 74.4216 251.868 76.5479V165.854C255.703 165.854 264.653 167.129 264.653 176.06C264.653 183.204 256.981 200.299 253.146 207.954C259.283 207.954 260.818 213.058 260.818 215.609C260.392 243.252 259.539 300.577 259.539 308.742C259.539 316.907 254.425 318.948 251.868 318.948V350.844C254.425 350.844 259.539 358.498 259.539 369.98C259.54 379.166 270.619 384.864 276.16 386.565C280.847 387.416 293.803 389.628 308.122 391.669C322.442 393.71 324.318 402.726 323.465 406.979L329.858 413.357V441.425L345.2 451.631V470.768L338.807 479.698L347.756 488.629V511.594L311.958 552.419V558.798C310.68 558.798 305.565 559.819 295.337 563.901C285.109 567.984 275.734 588.567 272.325 598.348V654.482L241.64 690L210.956 654.482V598.348C207.546 588.567 198.17 567.984 187.942 563.901C177.715 559.819 172.601 558.798 171.322 558.798V552.419L135.523 511.594V488.629L144.472 479.698L138.08 470.768V451.631L153.422 441.425V413.357L159.815 406.979C158.963 402.726 160.838 393.71 175.157 391.669C189.476 389.628 202.431 387.416 207.12 386.565C212.66 384.864 223.74 379.166 223.741 369.98C223.741 358.498 228.855 350.844 231.412 350.844V318.948C228.855 318.948 223.741 316.907 223.741 308.742C223.741 300.577 222.889 243.252 222.462 215.609C222.462 213.058 223.996 207.954 230.133 207.954C226.298 200.299 218.626 183.204 218.626 176.06C218.626 167.129 227.576 165.854 231.412 165.854V76.5479C230.133 74.4216 227.576 68.8931 227.576 63.79C227.576 58.6869 233.543 58.2613 236.526 58.6865C236.1 39.1243 236.526 0 241.64 0Z" fill="#13b3be33"/>
</svg>
